<svg xmlns="http://www.w3.org/2000/svg" width="16" height="16" viewBox="0 0 4.233 4.233" id="calender">
  <g transform="translate(73.405 -1.965)">
    <g>
      <g transform="translate(.046)">
        <g transform="translate(0 -.007)">
          <g>
            <g transform="translate(-.14)">
              <g transform="translate(-92.519 -.321)">
                <g transform="translate(-.265)">
                  <g>
                    <g>
                      <g transform="translate(0 -.132)">
                        <g>
                          <g>
                            <g>
                              <g>
                                <path fill="none" stroke="#000" stroke-linecap="round" stroke-linejoin="round" stroke-width=".265" d="m 21.589751,6.261877 h -1.190615 c -0.293158,0 -0.529167,-0.2360084 -0.529167,-0.5291667 V 3.7929701 c 0,-0.2931583 0.236009,-0.5291666 0.529167,-0.5291666 h 2.381242 c 0.293158,0 0.529166,0.2360083 0.529166,0.5291666 v 0.7488483" paint-order="markers fill stroke"></path>
                                <path fill="none" stroke="#000" stroke-linecap="round" stroke-linejoin="round" stroke-width=".265" d="M20.738123 4.638286a.13229156.13229156 0 01-.187088-.0000016.13229156.13229156 0 01-.000002-.1870881.13229156.13229156 0 01.187089 0 .13229156.13229156 0 01.000001.1870897zM21.683302 4.4511962a.13229156.13229156 0 01-.000001.187088.13229156.13229156 0 01-.187089.000002.13229156.13229156 0 010-.187089.13229156.13229156 0 01.18709-.000001zM22.606743 4.638286a.13229156.13229156 0 01-.187088-.0000016.13229156.13229156 0 01-.000002-.1870881.13229156.13229156 0 01.187089 0 .13229156.13229156 0 01.000001.1870897zM20.738123 5.5613926a.13229156.13229156 0 01-.187088-.0000016.13229156.13229156 0 01-.000002-.1870881.13229156.13229156 0 01.187089 0 .13229156.13229156 0 01.000001.1870897zM21.683302 5.3743028a.13229156.13229156 0 01-.000001.187088.13229156.13229156 0 01-.187089.000002.13229156.13229156 0 010-.187089.13229156.13229156 0 01.18709-.000001z" paint-order="markers fill stroke"></path>
                                <g transform="translate(-.019)">
                                  <path fill="none" stroke="#000" stroke-linecap="round" stroke-linejoin="round" stroke-width=".265" d="M20.874552 3.7801081c-.14658 0-.264586-.1180054-.264586-.264586V3.0855794c0-.1465807.118006-.264586.264586-.264586.146581 0 .264586.1180053.264586.264586v.136423M22.342163 3.7801081c-.14658 0-.264586-.1180054-.264586-.264586V3.0855794c0-.1465807.118006-.264586.264586-.264586.146581 0 .264586.1180053.264586.264586v.136423" paint-order="markers fill stroke"></path>
                                </g>
                              </g>
                              <path fill="none" stroke="#000" stroke-linecap="round" stroke-linejoin="round" stroke-width=".265" d="M22.446936 6.1293185l.863349-.849139M23.310285 6.1293185L22.446936 5.2801795" paint-order="markers fill stroke"></path>
                            </g>
                          </g>
                        </g>
                      </g>
                    </g>
                  </g>
                </g>
              </g>
            </g>
          </g>
        </g>
      </g>
    </g>
  </g>
</svg>
